<svg width="56" height="56" viewBox="0 0 56 56" fill="none" xmlns="http://www.w3.org/2000/svg">
<rect width="56" height="56" rx="8" fill="none"/>
<path d="M25.7304 18.7884C27.0004 17.7794 28.7804 17.7394 30.0894 18.6684L30.2504 18.7884L36.3394 23.6594C37.0094 24.1784 37.4204 24.9494 37.4904 25.7884L37.5004 25.9894V34.0984C37.5004 36.1884 35.8494 37.8884 33.7804 37.9984H31.7904C30.8394 37.9794 30.0704 37.2394 30.0004 36.3094L29.9904 36.1684V33.3094C29.9904 32.9984 29.7594 32.7394 29.4504 32.6884L29.3604 32.6784H26.6894C26.3704 32.6884 26.1104 32.9184 26.0704 33.2184L26.0604 33.3094V36.1594C26.0604 36.2184 26.0494 36.2884 26.0404 36.3384L26.0304 36.3594L26.0194 36.4284C25.9004 37.2794 25.2004 37.9284 24.3304 37.9894L24.2004 37.9984H22.4104C20.3204 37.9984 18.6104 36.3594 18.5004 34.2984V25.9894C18.5094 25.1384 18.8804 24.3484 19.5004 23.7984L25.7304 18.7884ZM29.3804 19.8784C28.6204 19.2684 27.5404 19.2394 26.7404 19.7684L26.5894 19.8784L20.5094 24.7794C20.1604 25.0384 19.9504 25.4284 19.9004 25.8384L19.8894 25.9984V34.0984C19.8894 35.4284 20.9294 36.5184 22.2504 36.5984H24.2004C24.4204 36.5984 24.6104 36.4494 24.6394 36.2394L24.6604 36.0594L24.6704 36.0084V33.3094C24.6704 32.2394 25.4904 31.3694 26.5404 31.2884H29.3604C30.4294 31.2884 31.2994 32.1094 31.3804 33.1594V36.1684C31.3804 36.3784 31.5304 36.5594 31.7304 36.5984H33.5894C34.9294 36.5984 36.0194 35.5694 36.0994 34.2584L36.1104 34.0984V25.9984C36.0994 25.5694 35.9204 25.1684 35.6104 24.8694L35.4804 24.7584L29.3804 19.8784Z" fill="#EA7C69"/>
</svg>
